<?xml version="1.0" encoding="utf-8"?>
<!-- Generator: Adobe Illustrator 14.0.0, SVG Export Plug-In . SVG Version: 6.00 Build 43363)  -->
<!DOCTYPE svg PUBLIC "-//W3C//DTD SVG 1.1//EN" "http://www.w3.org/Graphics/SVG/1.1/DTD/svg11.dtd">
<svg version="1.1" id="Layer_1" xmlns="http://www.w3.org/2000/svg" xmlns:xlink="http://www.w3.org/1999/xlink" x="0px" y="0px"
	 width="128px" height="64px" viewBox="0 0 128 64" enable-background="new 0 0 128 64" xml:space="preserve">
<path d="M28.518,45.241c0,3.055-0.721,5.37-2.164,6.945c-1.442,1.576-3.563,2.364-6.363,2.364c-0.921,0-1.885-0.085-2.891-0.255
	c-1.006-0.17-2.012-0.418-3.018-0.745v-3.31c1.188,0.558,2.267,0.97,3.236,1.236s1.86,0.4,2.673,0.4
	c1.806,0,3.121-0.491,3.945-1.473c0.824-0.982,1.236-2.54,1.236-4.673v-0.146v-2.272c-0.533,1.139-1.261,1.987-2.182,2.545
	c-0.921,0.558-2.042,0.837-3.364,0.837c-2.376,0-4.273-0.952-5.691-2.855c-1.418-1.902-2.127-4.448-2.127-7.636
	c0-3.2,0.709-5.752,2.127-7.655c1.418-1.903,3.315-2.854,5.691-2.854c1.309,0,2.418,0.26,3.327,0.782
	c0.909,0.521,1.648,1.327,2.218,2.418v-2.636h3.346V45.241z M25.172,36.205c0-2.51-0.409-4.416-1.227-5.719
	c-0.818-1.303-2.009-1.955-3.573-1.955c-1.637,0-2.885,0.652-3.746,1.955c-0.861,1.303-1.291,3.209-1.291,5.719
	c0,2.509,0.433,4.421,1.3,5.736s2.125,1.973,3.773,1.973c1.54,0,2.718-0.661,3.537-1.982C24.763,40.611,25.172,38.702,25.172,36.205
	z"/>
<path d="M43.19,25.696c2.824,0,4.985,0.915,6.482,2.745c1.497,1.831,2.245,4.479,2.245,7.946c0,3.479-0.745,6.13-2.236,7.954
	c-1.491,1.824-3.654,2.737-6.491,2.737c-2.824,0-4.982-0.913-6.473-2.737c-1.491-1.824-2.236-4.476-2.236-7.954
	c0-3.467,0.746-6.115,2.236-7.946C38.208,26.611,40.366,25.696,43.19,25.696z M43.19,28.532c-1.697,0-2.982,0.661-3.855,1.982
	c-0.873,1.321-1.309,3.279-1.309,5.873c0,2.582,0.437,4.536,1.309,5.863c0.873,1.327,2.158,1.991,3.855,1.991
	c1.709,0,3-0.664,3.873-1.991s1.309-3.281,1.309-5.863c0-2.594-0.437-4.552-1.309-5.873S44.899,28.532,43.19,28.532z"/>
<path d="M73.392,30.387c-0.715-0.558-1.443-0.964-2.182-1.218c-0.739-0.255-1.551-0.382-2.437-0.382
	c-2.084,0-3.679,0.654-4.782,1.963s-1.654,3.2-1.654,5.673v10.128h-3.364V26.187h3.364v3.982c0.557-1.442,1.415-2.549,2.573-3.318
	c1.157-0.77,2.53-1.154,4.118-1.154c0.824,0,1.594,0.103,2.309,0.309c0.715,0.206,1.4,0.527,2.055,0.963V30.387z"/>
<path d="M94.064,34.932v11.619h-3.364v-3.019c-0.715,1.212-1.615,2.106-2.7,2.682c-1.084,0.576-2.403,0.864-3.955,0.864
	c-2.073,0-3.727-0.585-4.963-1.755s-1.854-2.736-1.854-4.7c0-2.267,0.76-3.988,2.282-5.164c1.521-1.176,3.754-1.764,6.7-1.764h4.491
	v-0.527c-0.012-1.624-0.424-2.803-1.236-3.536s-2.109-1.1-3.891-1.1c-1.139,0-2.291,0.164-3.455,0.491s-2.297,0.806-3.4,1.437
	v-3.346c1.236-0.473,2.421-0.827,3.555-1.063s2.233-0.354,3.3-0.354c1.685,0,3.125,0.248,4.318,0.745s2.161,1.243,2.9,2.236
	c0.461,0.606,0.788,1.355,0.982,2.246C93.967,31.814,94.064,33.15,94.064,34.932z M87.573,36.313h-1.109
	c-1.952,0-3.421,0.343-4.409,1.027c-0.988,0.686-1.482,1.706-1.482,3.064c0,1.224,0.37,2.176,1.109,2.854
	c0.739,0.679,1.763,1.018,3.073,1.018c1.842,0,3.291-0.639,4.345-1.918c1.055-1.278,1.588-3.046,1.6-5.3v-0.746H87.573z"/>
<path d="M112.828,40.005c-0.558,1.418-1.267,3.285-2.127,5.6c-1.2,3.2-2.006,5.152-2.418,5.855
	c-0.558,0.945-1.254,1.654-2.091,2.127s-1.812,0.709-2.927,0.709h-2.691v-2.8h1.981c0.982,0,1.752-0.285,2.309-0.854
	c0.558-0.57,1.267-2.043,2.127-4.419l-7.873-20.036h3.545l6.036,15.928l5.946-15.928h3.545L112.828,40.005z"/>
<g>
	<line fill="none" stroke="#000000" stroke-width="5" x1="58.973" y1="15.002" x2="108.655" y2="15.002"/>
	<polygon points="108.655,22.334 108.655,7.762 118.192,15.002 	"/>
</g>
</svg>
